<svg xmlns="http://www.w3.org/2000/svg" viewBox="-200 -200 1400 1400" >
    <style>
      #grid{
        stroke:red;stroke-width:1;fill:none;
      }
      #outline{fill:none;stroke:black;stroke-width:5;display:none}
      #logo2{fill:blue;stroke:black;stroke-width:5}
      #logo{display:none;fill:none}
    </style>



    <g id="grid">
      <path d="M250 250a250 250 0 1 0 500 500"/>


      <path d="M300 300a200 200 0 1 0 400 400"/>
      <path d="M300 300a200 200 0 1 1 400 400"/>

      <line x1="500" y1="0" x2="500" y2="1000"/>
      <line x1="0" y1="500" x2="1000" y2="500"/>
      <line x1="0" y1="0" x2="1000" y2="1000"/>
      <line x1="0" y1="1000" x2="1000" y2="0"/>
      <line x1="500" y1="0" x2="0" y2="500"/>
      <line x1="1000" y1="500" x2="500" y2="1000"/>
      <line x1="600" y1="0" x2="300" y2="300"/>
      <line x1="700" y1="700" x2="1000" y2="400"/>

      <line x1="358.5" y1="358.5" x2="717" y2="0"/>
      <line x1="641.5" y1="641.5" x2="1000" y2="283"/>

      <line x1="0" y1="83" x2="1000" y2="83"/>
      <line x1="917" y1="0" x2="917" y2="1000"/>

<path d="M917 83h-283l-134 134a283 283 0 0 1 283 283l134 -134z"/>

      <circle cx="634" cy="83" r="5"/>
      <circle cx="917" cy="366" r="5"/>
      <circle cx="917" cy="83" r="5"/>

      <circle cx="783" cy="500" r="5"/>

      <circle cx="500" cy="500" r="200"/>
    </g>
    <g id="outline">
      <path d="M0 0v1000h1000v-500l-250 250a250 250 0 1 1 -500 -500l250 -250z" />
      <path d="M1000 0h-400l-300 300a200 200 0 1 0 400 400l300 -300z"/>
<path d="M917 83v283l-134 134a283 283 0 0 0 -283 -283l134 -134z"/>
      <path d="M358.5 358.5a200 200 0 0 1 283 283a200 200 0 0 1 -283 -283z"/>
    </g>
    <g id="logo">
      <path   d="M0 0v1000h1000v-500l-250 250a250 250 0 1 1 -500 -500l250 -250z M1000 0h-400l-300 300a200 200 0 1 0 400 400l300 -300z"/>
      <path id=" new_logo" d="M0 0v1000h1000v-500l-250 250a250 250 0 1 1 -500 -500l250 -250z M1000 0h-400l-300 300a200 200 0 1 0 400 400l300 -300z M917 83v283l-134 134a283 283 0 0 0 -283 -283l134 -134z M358.5 358.5a200 200 0 0 1 283 283a200 200 0 0 1 -283 -283z"/>
      <path  id="new_inverted" d="M-200 -200 h1400 v1400 h-1400z M0 0v1000h1000v-500l-250 250a250 250 0 1 1 -500 -500l250 -250z M1000 0h-400l-300 300a200 200 0 1 0 400 400l300 -300z M917 83v283l-134 134a283 283 0 0 0 -283 -283l134 -134z M358.5 358.5a200 200 0 0 1 283 283a200 200 0 0 1 -283 -283z"/>
      <path id="new_not_triangle" d="M-200 -200 h1400 v1400 h-1400z M0 0v1000h1000v-500l-250 250a250 250 0 1 1 -500 -500l250 -250z M1000 0h-400l-300 300a200 200 0 1 0 400 400l300 -300z M917 83v283l-75 75l-283 -283l75 -75z M358.5 358.5a200 200 0 0 1 283 283a200 200 0 0 1 -283 -283z"/>
      <path  id="new_no_triangle" d="M-200 -200 h1400 v1400 h-1400z M0 0v1000h1000v-500l-250 250a250 250 0 1 1 -500 -500l250 -250z M1000 0h-400l-300 300a200 200 0 1 0 400 400l300 -300z M358.5 358.5a200 200 0 0 1 283 283a200 200 0 0 1 -283 -283z"/>
      <path id=" new_logo_font" d="M0 0h1000v500l-250 -250 a250 250 0 0 0 -500 500l250 250h-500z m1000 1000v-400l-300 -300a200 200 0 1 0 -400 400l300 300z M917 917h-283l-134 -134a283 283 0 0 0 283 -283l134 134z M358.5 358.5a200 200 0 0 1 283 283a200 200 0 0 1 -283 -283z"/>
    </g>
    <g id="logo2">

<path  id="new_inverted" d="M-200 -200 h1400 v1400 h-1400z M0 0v1000h1000v-500l-250 250a250 250 0 1 1 -500 -500l250 -250z M1000 0h-400l-300 300a200 200 0 1 0 400 400l300 -300z M917 83v283l-134 134a283 283 0 0 0 -283 -283l134 -134z M358.5 358.5a200 200 0 0 1 283 283a200 200 0 0 1 -283 -283z"/>
</g>

</svg>
