<?xml version="1.0" encoding="UTF-8" standalone="no"?>
<svg viewBox="0 0 800 150" width="800" height="150" xmlns="http://www.w3.org/2000/svg">
   <path d="M 0 0 L 0 28.300781 L 43.839844 28.300781 L 31.960938 40.179688 A 36.63 36.63 0 1 0 78.820312 87.039062 L 90.699219 75.160156 L 90.699219 120.69922 L 0 120.69922 L 0 150 L 800 150 L 800 0 L 0 0 z M 53.34375 28.300781 L 90.699219 28.300781 L 90.699219 65.65625 L 63.185547 93.171875 A 26.410014 26.410014 0 0 1 25.828125 55.828125 L 53.34375 28.300781 z M 56.050781 34.900391 L 42.849609 48.099609 A 26.4 26.4 0 0 1 70.847656 76.097656 L 84.113281 62.832031 L 84.099609 34.900391 L 56.050781 34.900391 z M 43.650391 54.705078 A 19.834345 19.834345 0 0 0 30.494141 60.494141 A 19.834345 19.834345 0 0 0 58.544922 88.544922 A 19.834345 19.834345 0 0 0 43.650391 54.705078 z M 104.06445 63.75 L 114.64844 63.75 L 114.64844 94.914062 L 116.69922 92.277344 L 126.84375 80.376953 L 139.55078 80.376953 L 125.23242 96.892578 L 140.79688 120 L 128.63867 120 L 118.45703 104.10742 L 114.64844 107.91602 L 114.64844 120 L 104.06445 120 L 104.06445 63.75 z M 144.75195 63.75 L 155.37109 63.75 L 155.37109 120 L 144.75195 120 L 144.75195 63.75 z M 575.30469 63.75 L 585.92578 63.75 L 585.92578 120 L 576.36719 120 L 575.85352 115.78906 C 573.2168 119.08496 569.82421 120.73242 565.67383 120.73242 C 561.01074 120.73242 557.26367 118.90234 554.43164 115.24023 C 551.62403 111.55371 550.2207 106.4375 550.2207 99.894531 C 550.2207 93.717773 551.59864 88.798828 554.35742 85.136719 C 557.14062 81.474609 560.93652 79.644531 565.74609 79.644531 C 569.60351 79.644531 572.79003 81.083984 575.30469 83.964844 L 575.30469 63.75 z M 169.98242 64.666016 C 171.78906 64.666016 173.23047 65.177734 174.30469 66.203125 C 175.37891 67.228516 175.91602 68.53418 175.91602 70.121094 C 175.91602 71.732422 175.36621 73.050781 174.26758 74.076172 C 173.19336 75.101563 171.76465 75.615234 169.98242 75.615234 C 168.2002 75.615234 166.76074 75.101563 165.66211 74.076172 C 164.58789 73.050781 164.05078 71.732422 164.05078 70.121094 C 164.05078 68.53418 164.57519 67.228516 165.625 66.203125 C 166.69922 65.177734 168.15137 64.666016 169.98242 64.666016 z M 403.07617 70.634766 L 413.66016 70.634766 L 413.66016 80.376953 L 420.43359 80.376953 L 420.43359 88.138672 L 413.66016 88.138672 L 413.66016 107.91602 C 413.66016 109.38086 413.94043 110.42969 414.50195 111.06445 C 415.06348 111.69922 416.1377 112.01563 417.72461 112.01562 C 418.89648 112.01562 419.93457 111.93067 420.83789 111.75977 L 420.83789 119.7793 C 418.7627 120.41406 416.625 120.73242 414.42773 120.73242 C 407.00586 120.73242 403.22266 116.98535 403.07617 109.49023 L 403.07617 88.138672 L 397.29102 88.138672 L 397.29102 80.376953 L 403.07617 80.376953 L 403.07617 70.634766 z M 205.68945 79.644531 C 210.79199 79.644531 214.29493 81.657227 216.19922 85.685547 C 218.98243 81.657227 222.9502 79.644531 228.10156 79.644531 C 232.39844 79.644531 235.59571 80.901368 237.69531 83.416016 C 239.79493 85.90625 240.8457 89.666016 240.8457 94.695312 L 240.8457 120 L 230.22461 120 L 230.22461 94.730469 C 230.22461 92.484375 229.78516 90.849609 228.90625 89.824219 C 228.02734 88.774414 226.47754 88.25 224.25586 88.25 C 221.08203 88.25 218.88477 89.763672 217.66406 92.791016 L 217.70117 120 L 207.11719 120 L 207.11719 94.767578 C 207.11719 92.472657 206.66504 90.8125 205.76172 89.787109 C 204.8584 88.761719 203.31934 88.25 201.14648 88.25 C 198.14356 88.25 195.97168 89.494141 194.62891 91.984375 L 194.62891 120 L 184.04492 120 L 184.04492 80.376953 L 193.9707 80.376953 L 194.29883 84.806641 C 197.10644 81.364258 200.90429 79.644531 205.68945 79.644531 z M 265.08789 79.644531 C 269.9707 79.644531 273.84082 80.875977 276.69727 83.341797 C 279.57813 85.783204 281.01758 89.226563 281.01758 93.669922 L 281.01758 110.8457 C 281.04198 114.60547 281.5664 117.44825 282.5918 119.37695 L 282.5918 120 L 271.89844 120 C 271.41016 119.04785 271.05762 117.86329 270.83789 116.44727 C 268.27442 119.30371 264.94141 120.73242 260.83984 120.73242 C 256.95801 120.73242 253.73536 119.60937 251.17188 117.36328 C 248.63281 115.11719 247.36328 112.28515 247.36328 108.86719 C 247.36328 104.66797 248.91309 101.44531 252.01367 99.199219 C 255.13867 96.953125 259.64356 95.817383 265.52734 95.792969 L 270.39844 95.792969 L 270.39844 93.523438 C 270.39844 91.692383 269.92285 90.227539 268.9707 89.128906 C 268.04296 88.030274 266.56543 87.480469 264.53906 87.480469 C 262.75684 87.480469 261.35351 87.907227 260.32812 88.761719 C 259.32714 89.616211 258.82617 90.788086 258.82617 92.277344 L 248.24219 92.277344 C 248.24219 89.982422 248.94922 87.859375 250.36523 85.90625 C 251.78125 83.953125 253.7832 82.426758 256.37109 81.328125 C 258.95899 80.205078 261.86524 79.644531 265.08789 79.644531 z M 309.43555 79.644531 C 314.31835 79.644531 318.11621 81.451172 320.82617 85.064453 C 323.53613 88.677734 324.89062 93.656252 324.89062 100.00391 L 324.89062 100.55469 C 324.89062 106.6582 323.49805 111.55371 320.71484 115.24023 C 317.95606 118.90234 314.22168 120.73242 309.50977 120.73242 C 305.50586 120.73242 302.27051 119.34179 299.80469 116.55859 L 299.80469 135.23438 L 289.2207 135.23438 L 289.2207 80.376953 L 299.03516 80.376953 L 299.40234 84.257812 C 301.96582 81.181641 305.30957 79.644531 309.43555 79.644531 z M 347.55859 79.644531 C 352.44141 79.644531 356.31152 80.875977 359.16797 83.341797 C 362.04883 85.783204 363.48828 89.226563 363.48828 93.669922 L 363.48828 110.8457 C 363.51268 114.60547 364.03905 117.44825 365.06445 119.37695 L 365.06445 120 L 354.37109 120 C 353.88281 119.04785 353.52832 117.86329 353.30859 116.44727 C 350.74511 119.30371 347.41211 120.73242 343.31055 120.73242 C 339.42871 120.73242 336.20605 119.60937 333.64258 117.36328 C 331.10351 115.11719 329.83398 112.28515 329.83398 108.86719 C 329.83398 104.66797 331.38379 101.44531 334.48438 99.199219 C 337.60938 96.953125 342.11425 95.817383 347.99805 95.792969 L 352.86914 95.792969 L 352.86914 93.523438 C 352.86914 91.692383 352.39355 90.227539 351.44141 89.128906 C 350.51367 88.030274 349.03613 87.480469 347.00977 87.480469 C 345.22754 87.480469 343.82227 87.907227 342.79688 88.761719 C 341.7959 89.616211 341.29688 90.788086 341.29688 92.277344 L 330.71289 92.277344 C 330.71289 89.982422 331.41992 87.859375 332.83594 85.90625 C 334.25196 83.953125 336.25391 82.426758 338.8418 81.328125 C 341.42969 80.205078 344.33594 79.644531 347.55859 79.644531 z M 390.80859 79.644531 C 391.98047 79.644531 393.07813 79.801758 394.10352 80.119141 L 393.95703 90.300781 C 392.5166 90.105469 391.24706 90.007812 390.14844 90.007812 C 386.14453 90.007812 383.52051 91.362304 382.27539 94.072266 L 382.27539 120 L 371.69141 120 L 371.69141 80.376953 L 381.68945 80.376953 L 381.98242 85.099609 C 384.10645 81.461914 387.04883 79.644531 390.80859 79.644531 z M 447.79102 79.644531 C 451.99024 79.644531 455.11524 80.875977 457.16602 83.341797 C 459.2168 85.807618 460.26563 89.495118 460.31445 94.402344 L 460.31445 120 L 449.73242 120 L 449.73242 94.658203 C 449.73242 92.412109 449.24219 90.788085 448.26562 89.787109 C 447.28907 88.761719 445.66699 88.25 443.39648 88.25 C 440.41796 88.25 438.18457 89.519532 436.69531 92.058594 L 436.69531 120 L 426.11133 120 L 426.11133 80.376953 L 436.07227 80.376953 L 436.40234 84.953125 C 439.23437 81.413086 443.03027 79.644531 447.79102 79.644531 z M 485.4375 79.644531 C 490.85742 79.644531 495.11621 81.353516 498.2168 84.771484 C 501.3418 88.189453 502.9043 93.03418 502.9043 99.308594 L 502.9043 103.63086 L 477.67383 103.63086 C 478.01563 106.21875 479.04102 108.29297 480.75 109.85547 C 482.4834 111.41797 484.66797 112.19922 487.30469 112.19922 C 491.38183 112.19922 494.56836 110.72168 496.86328 107.76758 L 502.0625 113.5918 C 500.47559 115.83789 498.32715 117.5957 495.61719 118.86523 C 492.90722 120.11035 489.90527 120.73242 486.60938 120.73242 C 480.79883 120.73242 476.0625 118.94922 472.40039 115.38477 C 468.7627 111.82031 466.94336 107.07324 466.94336 101.14062 L 466.94336 100.11523 C 466.94336 96.13574 467.71191 92.583984 469.25 89.458984 C 470.78809 86.30957 472.96192 83.891602 475.76953 82.207031 C 478.60156 80.498047 481.82422 79.644531 485.4375 79.644531 z M 528.06445 79.644531 C 529.23633 79.644531 530.33399 79.801758 531.35938 80.119141 L 531.21289 90.300781 C 529.77246 90.105469 528.50292 90.007812 527.4043 90.007812 C 523.40039 90.007812 520.77637 91.362304 519.53125 94.072266 L 519.53125 120 L 508.94727 120 L 508.94727 80.376953 L 518.94531 80.376953 L 519.23828 85.099609 C 521.36231 81.461914 524.30469 79.644531 528.06445 79.644531 z M 611.26758 79.644531 C 616.6875 79.644531 620.94629 81.353516 624.04688 84.771484 C 627.17188 88.189453 628.73438 93.03418 628.73438 99.308594 L 628.73438 103.63086 L 603.50391 103.63086 C 603.8457 106.21875 604.87109 108.29297 606.58008 109.85547 C 608.31348 111.41797 610.49805 112.19922 613.13477 112.19922 C 617.21191 112.19922 620.39844 110.72168 622.69336 107.76758 L 627.89258 113.5918 C 626.30566 115.83789 624.15723 117.5957 621.44727 118.86523 C 618.73731 120.11035 615.73535 120.73242 612.43945 120.73242 C 606.62891 120.73242 601.89258 118.94922 598.23047 115.38477 C 594.59278 111.82031 592.77344 107.07324 592.77344 101.14062 L 592.77344 100.11523 C 592.77344 96.13574 593.54199 92.583984 595.08008 89.458984 C 596.61816 86.30957 598.792 83.891602 601.59961 82.207031 C 604.43164 80.498047 607.6543 79.644531 611.26758 79.644531 z M 164.67188 80.376953 L 175.29297 80.376953 L 175.29297 120 L 164.67188 120 L 164.67188 80.376953 z M 485.40039 88.212891 C 483.30078 88.212891 481.5918 88.919922 480.27344 90.335938 C 478.97949 91.751953 478.14942 93.779296 477.7832 96.416016 L 492.50391 96.416016 L 492.50391 95.574219 C 492.45511 93.230469 491.82229 91.423828 490.60156 90.154297 C 489.38086 88.860352 487.64648 88.212891 485.40039 88.212891 z M 611.23047 88.212891 C 609.13086 88.212891 607.42187 88.919922 606.10352 90.335938 C 604.80957 91.751953 603.97949 93.779296 603.61328 96.416016 L 618.33398 96.416016 L 618.33398 95.574219 C 618.28518 93.230469 617.65042 91.423828 616.42969 90.154297 C 615.20899 88.860352 613.47656 88.212891 611.23047 88.212891 z M 306.65234 88.25 C 303.33203 88.25 301.0498 89.519532 299.80469 92.058594 L 299.80469 108.28125 C 301.09863 110.89356 303.40626 112.19922 306.72656 112.19922 C 311.78028 112.19922 314.30664 108.06153 314.30664 99.785156 C 314.30664 96.098633 313.64648 93.253906 312.32812 91.251953 C 311.03418 89.25 309.14258 88.25 306.65234 88.25 z M 568.45703 88.25 C 563.35449 88.25 560.80273 92.387697 560.80273 100.66406 C 560.80273 104.375 561.45019 107.21973 562.74414 109.19727 C 564.03809 111.17481 565.91895 112.16406 568.38477 112.16406 C 571.65625 112.16406 573.96191 110.78418 575.30469 108.02539 L 575.30469 92.386719 C 573.98633 89.62793 571.7041 88.25 568.45703 88.25 z M 266.44336 101.98242 C 261.14551 101.98242 258.32617 103.81445 257.98438 107.47656 L 257.94727 108.09766 C 257.94727 109.41602 258.41016 110.50293 259.33789 111.35742 C 260.26562 112.21192 261.53516 112.63867 263.14648 112.63867 C 264.70898 112.63867 266.15039 112.29687 267.46875 111.61328 C 268.78711 110.90527 269.76367 109.9668 270.39844 108.79492 L 270.39844 101.98242 L 266.44336 101.98242 z M 348.91406 101.98242 C 343.61622 101.98242 340.79492 103.81445 340.45312 107.47656 L 340.41797 108.09766 C 340.41797 109.41602 340.88086 110.50293 341.80859 111.35742 C 342.73633 112.21192 344.00585 112.63867 345.61719 112.63867 C 347.17969 112.63867 348.6211 112.29687 349.93945 111.61328 C 351.25781 110.90527 352.23437 109.9668 352.86914 108.79492 L 352.86914 101.98242 L 348.91406 101.98242 z M 536.56055 109.12305 C 538.29395 109.12305 539.72266 109.64747 540.8457 110.69727 C 541.99316 111.74707 542.56641 113.11426 542.56641 114.79883 C 542.56641 116.45899 542.00391 117.81543 540.88086 118.86523 C 539.75781 119.89062 538.31836 120.40234 536.56055 120.40234 C 534.82715 120.40234 533.39844 119.89062 532.27539 118.86523 C 531.15234 117.81543 530.58984 116.45899 530.58984 114.79883 C 530.58984 113.11426 531.15234 111.74707 532.27539 110.69727 C 533.42285 109.64747 534.85156 109.12305 536.56055 109.12305 z " fill="#f5d300"/>
</svg>
