<svg xmlns="http://www.w3.org/2000/svg" viewBox="-25 -25 200 200" width="150" height="150">
    <path fill="#92007b" stroke-width="2" d="M0 -25a25 25 0 0 0 -25 25v150a25 25 0 0 0 25 25h150a25 25 0 0 0 25 -25v-150a25 25 0 0 0 -25 -25z M 5 5 L 74 5 L 56 23 A 55.5 55.5 0 1 0 127 94 L 145 76 L 145 145 L 5 145 Z M 46.71 46.71 L 88.4 5 L 145 5 L 145 61.6 L 103.31 103.29 A 40 40 0 0 1 46.71 46.71 Z M 53.78 53.78 A 30 30 0 0 0 96.28 96.28 A 30 30 0 1 0 53.78 53.78 Z M 135 15 L 92.5 15 L 72.5 35 A 40 40 0 0 1 114.92 77.42 L 135.02 57.32 Z"/>
</svg>
