<svg xmlns="http://www.w3.org/2000/svg" viewBox="0 0 800 150" width="800" height="150">
    
    <path transform="translate(-5 25) scale(0.66)" fill="#cc1f2f" stroke-width="2" d="M 5 5 L 74 5 L 56 23 A 55.5 55.5 0 1 0 127 94 L 145 76 L 145 145 L 5 145 Z M 46.71 46.71 L 88.4 5 L 145 5 L 145 61.6 L 103.31 103.29 A 40 40 0 0 1 46.71 46.71 Z M 53.78 53.78 A 30 30 0 0 0 96.28 96.28 A 30 30 0 1 0 53.78 53.78 Z M 135 15 L 92.5 15 L 72.5 35 A 40 40 0 0 1 114.92 77.42 L 135.02 57.32 Z"/>
    <text x="100" y="120" fill="#cc1f2f" font-size="75" font-family="Roboto" font-weight="700">klimapartner.de</text>
</svg>
